PathFileType	4	(X/Y/Z)	T1_P2_NoVision_NoMovement_2_0-733.trc
DataRate	CameraRate	NumFrames	NumMarkers	Units	OrigDataRate	OrigDataStartFrame	OrigNumFrames
60	60	6	27	m	60	91	733
Frame#	Time	RHip			RKnee			RAnkle			RBigToe			RSmallToe			RHeel			LHip			LKnee			LAnkle			LBigToe			LSmallToe			LHeel			Neck			Head			Nose			RShoulder			RElbow			RWrist			RThumb			RIndex			RPinky			LShoulder			LElbow			LWrist			LThumb			LIndex			LPinky		
		X1	Y1	Z1	X2	Y2	Z2	X3	Y3	Z3	X4	Y4	Z4	X5	Y5	Z5	X6	Y6	Z6	X7	Y7	Z7	X8	Y8	Z8	X9	Y9	Z9	X10	Y10	Z10	X11	Y11	Z11	X12	Y12	Z12	X13	Y13	Z13	X14	Y14	Z14	X15	Y15	Z15	X16	Y16	Z16	X17	Y17	Z17	X18	Y18	Z18	X19	Y19	Z19	X20	Y20	Z20	X21	Y21	Z21	X22	Y22	Z22	X23	Y23	Z23	X24	Y24	Z24	X25	Y25	Z25	X26	Y26	Z26	X27	Y27	Z27
92	1.5333333333333334	459.630884721848	3626.40278129036	526.5046741935317	862.1910636791689	3682.5977355150317	542.7215882129258	1258.0042407996434	3757.3025360835854	622.142715501575	1309.5582394771104	3602.9171864251953	548.0296903744133	1311.495998376377	3674.4887136381394	520.1886104798832	1282.055491116349	3734.547976738212	622.7589768397229	457.2664328379558	3514.908585481504	727.078702664523	863.5511102459222	3549.5027565866003	738.7093695643084	1238.03242926862	3602.2104723178536	723.4854410378535	1307.506452730314	3488.1126134137653	665.9463516972992	1270.482382238781	3441.579242916626	703.1368553416687	1268.0659716334212	3604.117608237184	698.6507206273358	-94.26089557768796	3552.429471919609	632.4543873088767	-352.2685352917401	3469.999345332226	594.6115002251743	-186.74937820272584	3445.703180856964	572.0155885963354	-35.689127763225954	3704.5503755949485	520.9542887993225	203.90604841000433	3636.8746126157707	420.41619526878395	361.2769444605731	3459.826411455203	485.094250812286	433.6829628391882	3464.869683194366	586.167402836126	451.6774869151567	3445.9394422322575	595.3691753311044	465.6428780321612	3403.3970323499498	561.0770769218193	-21.3752282549491	3497.4850493748663	767.5763079154706	221.13196646656115	3387.279792215378	746.5476116494234	363.84286591785974	3381.8726380766075	585.9597015200152	420.4712830481302	3407.8562189869303	491.69099029805824	455.74500590795225	3436.3783692902816	497.58586639320026	474.78507907344044	3389.9632530549934	549.0173483398626
93	1.55	459.2226386209304	3626.166576941897	526.3698896871083	862.3777760488856	3682.9458264874497	542.9600095148832	1259.4994995094746	3760.3863576987596	622.756986343927	1311.7271483691059	3605.7519761114836	550.5627478633479	1310.48266238505	3674.183310072797	520.2592834515393	1282.0548176344034	3734.620862793744	622.764448919921	456.83933063453645	3514.939330120684	726.4631094493325	863.5756368654916	3549.3958763226597	738.1928111684016	1237.3651398527934	3601.437126582025	723.2446685247503	1307.7045990551478	3490.6265965410685	670.2506921112691	1270.7727443785243	3441.1379236105417	702.897778220822	1267.3560440298709	3603.954528162055	698.263033581045	-94.42229492743873	3550.791093688463	631.0778982900661	-350.954296211673	3467.931949840896	593.0645018038941	-186.16653815229097	3448.2257619963325	573.9484184203204	-35.69612700858714	3704.92403424103	519.7431450889474	203.78697110975926	3636.918713778849	420.460973786625	361.2469111366768	3459.7153952193607	485.0050338093495	432.8839179772551	3461.6586464942757	584.0281364964393	451.0027806500566	3445.6270292222994	595.1882695329199	465.68032400872096	3403.36417991238	561.0023369991898	-21.32386417322526	3497.5502663082843	767.5993568610531	220.83878754151763	3381.7271844627912	743.8383792555006	364.6688833496854	3382.469897662253	586.1366388284335	420.2589385844185	3408.050637398377	491.5879032193937	456.6178269456203	3437.0751806652383	497.7387146241501	474.47613390760677	3388.4760521644703	547.700800636313
94	1.5666666666666669	459.58732264995035	3626.4414295854526	526.4121386583467	863.6497257597209	3683.36653529706	543.0375381708201	1262.0940117163877	3765.946556715329	623.712138551751	1313.7674145556011	3605.844609243678	551.2020621333803	1310.0598499202038	3673.9810823355774	520.286016659209	1283.2971416548044	3738.1962763075826	623.6124159695496	457.652520295735	3514.986385916505	725.866036903542	864.0133466734383	3548.7108582160886	738.2878555587081	1236.6563275364363	3600.4835743333433	722.9573526071999	1307.7821857803128	3490.702324623389	673.0347419148569	1271.1740243295653	3440.3456460218663	702.4607596029391	1267.893637501217	3604.0122052349	698.5279354613374	-94.49619441318755	3550.3490138081124	630.7087634098991	-349.6928240495249	3464.763207061317	590.5387037179428	-185.30447728879852	3447.8354304635727	573.6769991739816	-35.67997009388746	3705.0324253261033	519.4033577564987	203.8540070292375	3636.8474539176877	420.4957041338561	361.20829245142846	3459.640806541034	484.9104358278677	431.49096310981105	3457.860397162147	580.7293333324897	449.4352534307993	3445.0435723255155	594.8429204138993	465.69784021540767	3403.724663298632	561.2575853032448	-21.33104145724823	3497.5150465033767	767.5739664581005	220.35676901485792	3380.645387507862	743.1990004053431	365.05417641030294	3382.7179398589633	586.2043517154816	418.8270778751868	3407.3873400952275	491.26979487765556	455.3148600148856	3436.53532276915	497.737396099009	474.3815214470268	3388.3666246180574	547.6202988312093
95	1.5833333333333333	460.8730873298268	3627.3720811828744	526.6538162996098	864.9725571383585	3682.4920097884597	541.7711564067738	1263.16125631086	3768.334880663235	623.7677374843178	1314.5932875589615	3602.9165355999403	549.3355357997497	1310.402069825424	3673.968827317956	520.1713177312143	1284.151444716639	3740.603447896781	624.1980848608838	459.2711817045059	3515.061205937666	725.4817062563529	865.0452404476165	3547.930284170028	738.6969208028795	1236.8979883408213	3600.352208327969	722.9253055929127	1308.345354943718	3489.4234729927084	673.7737585599432	1271.3764033750704	3439.9024459580937	702.2408708636493	1269.5528964886305	3604.1780498358567	699.6358454359312	-94.49019872634221	3550.462803980764	630.81844345097	-349.61610592176794	3462.0938622733966	588.1925817509244	-184.5155361807375	3444.541983696432	570.8075142624845	-35.654067951768276	3704.9513566344444	519.8772476720674	204.31522406712446	3636.268724777974	420.2904706765792	361.1742407227594	3459.5937195208326	484.82744008636905	429.8425656358175	3457.321710030733	580.0371573028032	447.33961010705343	3444.3670299407468	594.4604043704898	465.6294401624158	3403.9801267989496	561.4721454124418	-21.159441955254735	3497.3745571085683	767.4975907590874	219.95692302983605	3382.629293352511	743.7878806581223	365.03262887413223	3382.6419840251137	586.1643251429771	416.9882673090492	3406.5455389174062	491.0266621968073	452.1714750878559	3435.253171965399	497.42185365293756	474.25562827264446	3388.628138216477	547.8566523590009
96	1.6	462.3657106212623	3628.5391221621044	526.9419545572734	864.873566644637	3679.2958586497098	538.5065133151276	1261.6696510693391	3766.4510745159105	623.0659753320688	1314.2014481245085	3599.0053144085864	546.4105148352913	1311.2052320429693	3674.1277793764352	520.0121123639365	1283.5681782594322	3738.9838769045327	623.8879774133133	460.8260402417777	3515.4431334004157	724.7810818845111	866.2159697406482	3547.7772281430725	739.0623325298707	1238.353816764957	3601.6932796191695	723.3957065910997	1308.4634601279256	3487.1687473463517	672.2942731026716	1271.2005937060624	3440.3144779505838	702.4946326575651	1271.4772037847429	3604.163986137686	701.4354148574328	-94.45095363817923	3550.658371576285	631.008491421038	-350.7400699776048	3460.4068256238543	586.4497838701973	-184.8160801210338	3441.226533602627	567.8153816416489	-35.62826024871682	3704.85945397031	520.715986131273	205.39836123941942	3635.0230341427405	419.60507137597983	361.1530785096927	3459.5400346747656	484.7661755880715	428.6496493031401	3459.969885695422	582.8839819476574	445.6407356124345	3443.8480754202255	594.2210724942822	465.5727702767745	3404.1432549012457	561.6788690398059	-20.77198678602495	3496.869652500726	767.2396344671554	220.12001429305244	3382.2650385344323	743.5414816103397	364.8937800316876	3382.480318460286	586.0902617252473	415.50753428401885	3406.4034292762462	490.9518805053868	448.84616009278807	3434.26167486324	496.91016595033227	474.09834780218233	3388.8417608407026	548.0040979603876
97	1.6166666666666667	463.6168023794072	3629.4835531655262	527.1950705957166	863.5288805954536	3675.7271320316213	535.119304757508	1259.1506030806954	3763.6857808247723	622.5947711973604	1314.200055939789	3597.573594741989	545.3165900531899	1311.8564588938268	3674.3148927352804	520.0375385741571	1282.1217198016625	3735.1057707761793	623.1322949410287	462.0338340052315	3516.251870575996	723.6807475901038	866.7181965216455	3547.8715594218293	739.170876148635	1239.8867550615896	3603.0443844892075	723.8316807309349	1307.1530534731578	3483.024532315355	668.3847069374541	1270.9130652509748	3441.1441569872704	702.9326929482396	1272.2906322320032	3603.8202352955254	702.7719587034151	-94.41577395506205	3550.7847628985533	631.1352951415943	-351.8362618629461	3458.587919785375	584.6072040468273	-186.49960930279275	3439.198291061112	566.1667642454718	-35.60885722255715	3704.927232818578	521.1344991464263	206.81960161577547	3633.6063849216052	418.4525249617908	361.14780822480316	3459.4840278678807	484.7310169707261	428.89045228310204	3462.5623078935955	586.4508200503415	444.99930337590433	3443.5249186412548	594.1605967429663	465.56053581971065	3404.2218915594945	561.8827693211972	-20.608234349341753	3495.8199029556145	766.7217994403941	221.25194012030096	3378.7052269836718	742.112484642165	364.90498706455736	3382.4513311180945	586.0509728507499	414.821266220944	3407.1181454371726	490.7629795932131	446.79240644350773	3434.037956903707	496.1039956700925	474.0091833410165	3388.969493355306	548.0371417101289
